<?xml version="1.0" encoding="utf-8"?>
<!-- Generator: Adobe Illustrator 21.0.0, SVG Export Plug-In . SVG Version: 6.00 Build 0)  -->
<svg version="1.1" id="Capa_1" xmlns="http://www.w3.org/2000/svg" xmlns:xlink="http://www.w3.org/1999/xlink" x="0px" y="0px"
	 viewBox="0 0 16 16" style="enable-background:new 0 0 16 16;" xml:space="preserve">
<style type="text/css">
	.st0{fill:#1E1C20;}
	.st1{fill-rule:evenodd;clip-rule:evenodd;fill:#66B4E9;}
	.st2{fill-rule:evenodd;clip-rule:evenodd;fill:#FFFFFF;}
	.st3{fill:#211915;}
	.st4{fill:#F1F1F1;}
	.st5{fill:#7E1C5A;}
	.st6{fill:#B36E79;}
	.st7{clip-path:url(#SVGID_2_);}
	.st8{fill:#FFFFFF;}
	.st9{fill:#CBE3F0;}
	.st10{fill:#B4CCD6;}
</style>
<g>
	<g>
		<path class="st0" d="M5.1,8.8C4.9,8.6,4.6,8.3,4.4,8.1C4.3,8,4.2,8,4.1,8c0.4-0.2,0.6,0.2,0.8,0.4c0.1,0.2,0.3,0.3,0.4,0.5
			C5.7,7.9,5.5,6.6,4.6,6c-1-0.7-2.5-0.4-3.2,0.7C0.6,7.9,0.8,9.3,1.8,10c1,0.7,2.5,0.4,3.2-0.7C5.1,9.2,5.2,9.1,5.2,9
			C5.2,8.9,5.1,8.9,5.1,8.8z"/>
		<path class="st1" d="M5.7,9.2C5.8,9.4,6,9.6,6.2,9.8c0.1,0.2,0.5,0.4,0.4,0.7c0,0.2-0.2,0.4-0.4,0.4c-0.3,0-0.5-0.3-0.7-0.5
			C5.4,10.2,5.2,10,5,9.9c-0.8,0.5-1.6,1.1-2.9,1c-0.8-0.1-1.4-0.4-1.7-0.9C0.2,9.7,0.1,9.2,0.1,8.7c0.1-1,0.6-1.8,1.3-2.4
			C2.1,5.6,3,5.2,4,5.1C5.4,5,6.4,5.8,6.5,7C6.5,7.9,6.1,8.6,5.7,9.2z M3.4,5.4c1-0.1,2,0.4,2.5,0.8C5.9,6.3,6,6.4,6.1,6.4
			C5.7,5.6,4.6,5.1,3.4,5.4z M3.7,6.1C3.1,6.1,2.4,6.5,2,6.9c-0.4,0.4-0.8,1-0.8,1.7c0,0.9,0.7,1.4,1.7,1.3c0.6-0.1,1-0.3,1.4-0.6
			C4.2,9.1,4.1,9,3.9,8.9C3.6,9,3.4,9.5,2.9,9.3C2.7,9.2,2.5,8.8,2.4,8.6C2.3,8.4,2.2,8.3,2.1,8.1C2,8,1.9,7.8,1.9,7.7
			c0-0.1,0.2-0.3,0.3-0.3c0.3,0,0.5,0.3,0.7,0.4C3.1,8,3.3,8.2,3.4,8.3c0.3-0.1,0.5-0.5,0.9-0.6c0.5-0.1,0.5,0.6,0.8,0.7
			C5.8,7.3,5.1,6,3.7,6.1z M4.4,8.1c0.2,0.2,0.4,0.5,0.6,0.7c0.2,0.3,0.4,0.5,0.6,0.7C5.5,9.2,5.1,8.7,4.8,8.4
			C4.6,8.2,4.5,7.8,4.1,8C4.2,8,4.3,8,4.4,8.1z"/>
		<path class="st2" d="M6.1,6.4C6,6.4,5.9,6.3,5.9,6.2C5.3,5.8,4.4,5.3,3.4,5.4C4.6,5.1,5.7,5.6,6.1,6.4z"/>
		<path class="st2" d="M4.4,8.1c0.2,0.2,0.4,0.5,0.6,0.7c0.2,0.3,0.4,0.5,0.6,0.7C5.5,9.2,5.1,8.7,4.8,8.4C4.6,8.2,4.5,7.8,4.1,8
			C4.2,8,4.3,8,4.4,8.1z"/>
	</g>
	<path class="st3" d="M7.5,5l0,6c0,0,0,0.1,0.1,0.1c0,0,0.1,0,0.1-0.1l0-6C7.6,5,7.6,4.9,7.5,5C7.5,4.9,7.5,5,7.5,5z"/>
	<g>
		<polygon class="st3" points="8.5,5.6 9.2,5.6 9.2,5.7 8.7,5.7 8.7,6.1 9.1,6.1 9.1,6.2 8.7,6.2 8.7,6.7 9.2,6.7 9.2,6.8 8.5,6.8 
					"/>
		<polygon class="st3" points="10.3,5.6 9.9,6.8 9.8,6.8 9.5,5.6 9.5,6.8 9.4,6.8 9.4,5.6 9.6,5.6 9.9,6.6 10.2,5.6 10.4,5.6 
			10.4,6.8 10.3,6.8 		"/>
		<path class="st3" d="M11,6.2c0.2,0,0.3-0.1,0.3-0.3c0-0.2-0.1-0.2-0.3-0.2l-0.2,0l0,0.5L11,6.2z M10.6,5.6l0.3,0
			c0.3,0,0.4,0.1,0.4,0.4c0,0.3-0.1,0.4-0.4,0.4l-0.2,0l0,0.5l-0.1,0L10.6,5.6z"/>
		<path class="st3" d="M11.8,6.1c0.2,0,0.3-0.1,0.3-0.2c0-0.2-0.1-0.2-0.3-0.2l-0.2,0l0,0.5L11.8,6.1z M11.5,5.6l0.4,0
			c0.3,0,0.4,0.1,0.4,0.3c0,0.2-0.1,0.3-0.2,0.3c0.1,0,0.2,0.1,0.2,0.3c0,0.2,0,0.3,0.1,0.4l-0.2,0c0-0.1,0-0.2,0-0.3
			c0-0.2-0.1-0.2-0.3-0.2l-0.2,0l0,0.6l-0.1,0L11.5,5.6z"/>
		<polygon class="st3" points="12.5,5.6 13.1,5.5 13.1,5.7 12.7,5.7 12.7,6.1 13.1,6.1 13.1,6.2 12.7,6.2 12.7,6.7 13.2,6.7 
			13.2,6.8 12.5,6.8 		"/>
		<path class="st3" d="M13.5,6.4C13.5,6.4,13.5,6.5,13.5,6.4c0,0.2,0.1,0.3,0.2,0.3c0.1,0,0.2-0.1,0.2-0.2c0-0.1-0.1-0.2-0.2-0.2
			c-0.1-0.1-0.2-0.1-0.3-0.1c-0.1-0.1-0.1-0.1-0.1-0.3c0-0.2,0.1-0.4,0.3-0.4c0.2,0,0.3,0.1,0.3,0.3c0,0,0,0,0,0l-0.1,0c0,0,0,0,0,0
			c0-0.1-0.1-0.2-0.2-0.2c-0.1,0-0.2,0.1-0.2,0.2c0,0.1,0.1,0.2,0.2,0.2c0.1,0.1,0.2,0.1,0.3,0.1c0.1,0.1,0.1,0.1,0.1,0.3
			c0,0.2-0.1,0.4-0.4,0.4c-0.2,0-0.4-0.1-0.4-0.4c0,0,0,0,0,0L13.5,6.4z"/>
		<path class="st3" d="M14.8,6.3l-0.2-0.7l-0.2,0.7L14.8,6.3z M14.5,5.5l0.2,0L15,6.8l-0.1,0l-0.1-0.4l-0.4,0l-0.1,0.4l-0.1,0
			L14.5,5.5z"/>
		<polygon class="st3" points="8.5,7.3 9.2,7.3 9.2,7.5 8.7,7.5 8.7,7.9 9.1,7.9 9.1,8 8.7,8 8.7,8.5 9.2,8.5 9.2,8.6 8.5,8.6 		"/>
		<polygon class="st3" points="9.4,7.3 9.5,7.3 9.5,8.5 10,8.5 10,8.6 9.4,8.6 		"/>
		<path class="st3" d="M10.6,7l0.1,0l-0.2,0.2l-0.1,0L10.6,7z M10.2,7.3l0.6,0l0,0.1l-0.5,0l0,0.4l0.5,0l0,0.1l-0.5,0l0,0.5l0.5,0
			l0,0.1l-0.6,0L10.2,7.3z"/>
		<path class="st3" d="M11.8,8.1c0,0.3-0.1,0.5-0.4,0.5C11.1,8.6,11,8.4,11,8c0-0.5,0.1-0.7,0.4-0.7c0.2,0,0.4,0.1,0.4,0.4
			c0,0,0,0,0,0l-0.1,0c0-0.2-0.1-0.3-0.2-0.3c-0.2,0-0.2,0.2-0.2,0.5c0,0.4,0.1,0.5,0.3,0.5c0.1,0,0.2-0.1,0.2-0.3c0,0,0,0,0,0
			L11.8,8.1z"/>
		<polygon class="st3" points="12.2,7.5 11.9,7.5 11.9,7.3 12.7,7.3 12.7,7.5 12.4,7.5 12.4,8.6 12.2,8.6 		"/>
		<path class="st3" d="M13.1,7.9c0.2,0,0.3-0.1,0.3-0.2c0-0.2-0.1-0.2-0.3-0.2l-0.2,0l0,0.5L13.1,7.9z M12.8,7.3l0.4,0
			c0.3,0,0.4,0.1,0.4,0.3c0,0.2-0.1,0.3-0.2,0.3c0.1,0,0.2,0.1,0.2,0.3c0,0.2,0,0.3,0.1,0.4l-0.2,0c0-0.1,0-0.2,0-0.3
			c0-0.2-0.1-0.2-0.3-0.2l-0.2,0l0,0.6l-0.1,0L12.8,7.3z"/>
		
			<rect x="13.8" y="7.3" transform="matrix(1 -3.537864e-03 3.537864e-03 1 -2.808332e-02 4.908899e-02)" class="st3" width="0.1" height="1.3"/>
		<path class="st3" d="M14.9,8.1c0,0.3-0.1,0.5-0.4,0.5c-0.3,0-0.4-0.2-0.4-0.7c0-0.5,0.1-0.7,0.4-0.7c0.2,0,0.4,0.1,0.4,0.4
			c0,0,0,0,0,0l-0.1,0c0-0.2-0.1-0.3-0.2-0.3c-0.2,0-0.2,0.2-0.2,0.5c0,0.4,0.1,0.5,0.3,0.5c0.1,0,0.2-0.1,0.2-0.3c0,0,0,0,0,0
			L14.9,8.1z"/>
		<path class="st3" d="M15.6,8.1l-0.2-0.7l-0.2,0.7L15.6,8.1z M15.4,7.3l0.2,0l0.4,1.3l-0.1,0l-0.1-0.4l-0.4,0l-0.1,0.4l-0.1,0
			L15.4,7.3z"/>
		<path class="st3" d="M9,10.1L9,10.1l0.2,0c0-0.1,0-0.2,0-0.4c0-0.4,0-0.6-0.3-0.6c-0.2,0-0.3,0.2-0.3,0.5c0,0.4,0.1,0.5,0.3,0.5
			c0.1,0,0.1,0,0.1,0L9,10.1z M8.9,10.4c-0.3,0-0.4-0.2-0.4-0.7c0-0.5,0.1-0.7,0.4-0.7c0.3,0,0.4,0.2,0.4,0.7c0,0.2,0,0.4-0.1,0.5
			l0.1,0.1l-0.1,0.1l-0.1-0.1C9.1,10.4,9.1,10.4,8.9,10.4z"/>
		<path class="st3" d="M9.7,9.1l0,0.9c0,0.2,0,0.3,0.2,0.3c0.2,0,0.2-0.1,0.2-0.3l0-0.9l0.1,0l0,0.8c0,0.1,0,0.3-0.1,0.3
			c-0.1,0.1-0.2,0.1-0.3,0.1c-0.1,0-0.2,0-0.3-0.1c-0.1-0.1-0.1-0.2-0.1-0.3l0-0.8L9.7,9.1z"/>
		
			<rect x="10.5" y="9.1" transform="matrix(1 -3.537864e-03 3.537864e-03 1 -3.443531e-02 3.754605e-02)" class="st3" width="0.1" height="1.3"/>
		<polygon class="st3" points="11.1,9.2 10.8,9.2 10.8,9.1 11.6,9.1 11.6,9.2 11.3,9.2 11.3,10.4 11.1,10.4 		"/>
		<path class="st3" d="M12.1,10.3c0.2,0,0.3-0.2,0.3-0.5c0-0.4-0.1-0.5-0.3-0.5c-0.2,0-0.3,0.2-0.3,0.5
			C11.8,10.1,11.9,10.3,12.1,10.3z M12.1,9.1c0.3,0,0.4,0.2,0.4,0.7c0,0.5-0.1,0.7-0.4,0.7c-0.3,0-0.4-0.2-0.4-0.7
			C11.7,9.3,11.8,9.1,12.1,9.1z"/>
	</g>
	<g>
		<path class="st4" d="M2.2,9.3c0,0,0,0.1,0,0.2c0.3,0.1,1.2,0.2,1.9-0.2C4.3,9.2,4.3,9,4.3,9C3.5,9.6,2.2,9.3,2.2,9.3z"/>
	</g>
	<g>
		<g>
			<path class="st5" d="M2.3,9.5c0,0.1,0.1,0.2,0.2,0.3c0.1-0.1,0.2-0.2,0.4-0.2C2.6,9.6,2.4,9.6,2.3,9.5z"/>
		</g>
		<g>
			<path class="st6" d="M3.3,10.1c0.6,0,0.8-0.4,0.9-0.7C3.8,9.6,3.3,9.6,2.9,9.6C2.7,9.7,2.6,9.8,2.5,9.9C2.7,10,2.9,10.1,3.3,10.1
				z"/>
		</g>
	</g>
	<g>
		<defs>
			<path id="SVGID_1_" d="M5.7,9.2C5.8,9.4,6,9.6,6.2,9.8c0.1,0.2,0.5,0.4,0.4,0.7c0,0.2-0.2,0.4-0.4,0.4c-0.3,0-0.5-0.3-0.7-0.5
				C5.4,10.2,5.2,10,5,9.9c-0.8,0.5-1.6,1.1-2.9,1c-0.8-0.1-1.4-0.4-1.7-0.9C0.2,9.7,0.1,9.2,0.1,8.7c0.1-1,0.6-1.8,1.3-2.4
				C2.1,5.6,3,5.2,4,5.1C5.4,5,6.4,5.8,6.5,7C6.5,7.9,6.1,8.6,5.7,9.2z"/>
		</defs>
		<clipPath id="SVGID_2_">
			<use xlink:href="#SVGID_1_"  style="overflow:visible;"/>
		</clipPath>
		<g class="st7">
			<path class="st8" d="M-0.2,8.5c0.1,0.9,1.3,1.6,2.2,1.3c0.1,0,0-0.2-0.1-0.2C1.1,10,0.1,9.3,0,8.5C0,8.4-0.2,8.4-0.2,8.5
				L-0.2,8.5z"/>
		</g>
		<g class="st7">
			<path class="st8" d="M4.2,8.8C4.1,8.8,4.1,8.8,4.2,8.8c-0.1-0.1,0-0.2,0-0.3l2.5-1.1c0.1,0,0.2,0,0.2,0.1c0,0.1,0,0.2-0.1,0.2
				L4.3,8.8C4.3,8.8,4.2,8.8,4.2,8.8z"/>
		</g>
		<g class="st7">
			<path class="st8" d="M1.6,9.3c-0.1,0-0.1,0-0.2,0l-1.9-1.9c-0.1-0.1-0.1-0.2,0-0.2C-0.3,7-0.2,7-0.2,7.1L1.7,9
				C1.8,9.1,1.8,9.2,1.6,9.3C1.7,9.3,1.7,9.3,1.6,9.3z"/>
		</g>
		<g class="st7">
			<path class="st8" d="M6.3,8.3C6.2,9.1,5.2,9.8,4.4,9.5c-0.1,0-0.2,0.1-0.1,0.2c0.9,0.4,2-0.4,2.2-1.3C6.5,8.3,6.3,8.2,6.3,8.3
				L6.3,8.3z"/>
		</g>
	</g>
	<g>
		<g>
			<path class="st8" d="M5.1,8.9c0-0.3,0-0.5,0.1-0.7C4.8,7.8,3.9,7.6,2.9,7.6c-1,0-1.8,0.3-2.3,0.7c0.1,0.2,0.1,0.4,0.1,0.7
				c0,0.3,0,0.5-0.1,0.7C1.1,10,2,10.3,2.9,10.3c1,0,1.8-0.3,2.3-0.7C5.1,9.4,5.1,9.2,5.1,8.9z"/>
		</g>
		<g>
			<path class="st9" d="M4.8,8.9c0-0.2,0-0.4,0.1-0.6C4.5,8,3.8,7.7,2.9,7.7C2.1,7.7,1.4,8,1,8.3C1,8.5,1.1,8.7,1.1,8.9
				c0,0.2,0,0.4-0.1,0.6c0.4,0.4,1.1,0.6,2,0.6c0.8,0,1.6-0.2,2-0.6C4.8,9.4,4.8,9.2,4.8,8.9z"/>
		</g>
		<g>
			<g>
				<path class="st10" d="M4.2,8.5c0,0-0.6-0.2-1.2-0.1c-0.7,0-1.2,0.1-1.2,0.1c0,0,0.1-0.1,0.3-0.1C2.3,8.3,2.6,8.2,3,8.2
					c0.4,0,0.7,0.1,0.9,0.1C4.1,8.5,4.2,8.5,4.2,8.5z"/>
			</g>
		</g>
		<g>
			<g>
				<path class="st10" d="M1.9,9.2c0,0,0.5,0.3,1.1,0.3c0.6,0,1.1-0.3,1.1-0.3c0,0-0.1,0.1-0.3,0.3C3.7,9.6,3.4,9.7,3,9.7
					c-0.4,0-0.7-0.1-0.9-0.3C1.9,9.3,1.9,9.2,1.9,9.2z"/>
			</g>
		</g>
	</g>
</g>
</svg>
